<svg width="128" height="128" viewBox="0 0 128 128" fill="none" xmlns="http://www.w3.org/2000/svg">
    <title>Gruvbox Material Island Icon</title>
    <defs>
        <clipPath id="split-clip">
            <path d="M0 0 L128 0 L128 128 Z" />
        </clipPath>

        <filter id="shadow" x="-4" y="-4" width="136" height="136" filterUnits="userSpaceOnUse">
            <feDropShadow dx="0" dy="4" stdDeviation="4" flood-color="#000000" flood-opacity="0.25"/>
        </filter>
    </defs>

    <g filter="url(#shadow)">
        <rect x="14" y="14" width="100" height="100" rx="16" fill="#282828" stroke="#504945" stroke-width="2"/>

        <path d="M15 30 C15 21.16 22.16 14 31 14 H97 C105.84 14 113 21.16 113 30 V34 H15 V30 Z" fill="#3c3836"/>
    </g>

    <g clip-path="url(#split-clip)">
        <rect x="14" y="14" width="100" height="100" rx="16" fill="#fbf1c7"/>

        <path d="M15 30 C15 21.16 22.16 14 31 14 H97 C105.84 14 113 21.16 113 30 V34 H15 V30 Z" fill="#ebdbb2"/>
    </g>

    <circle cx="34" cy="24" r="5" fill="#ea6962"/> <circle cx="50" cy="24" r="5" fill="#d8a657"/> <circle cx="66" cy="24" r="5" fill="#a9b665"/> <rect x="30" y="50" width="24" height="10" rx="5" fill="#ea6962"/>
    <rect x="60" y="50" width="40" height="10" rx="5" fill="#d4be98"/> <g clip-path="url(#split-clip)"><rect x="60" y="50" width="40" height="10" rx="5" fill="#3c3836"/></g> <rect x="30" y="70" width="30" height="10" rx="5" fill="#a9b665"/>
    <rect x="66" y="70" width="20" height="10" rx="5" fill="#d8a657"/>

    <rect x="30" y="90" width="16" height="10" rx="5" fill="#d3869b"/>
    <rect x="52" y="90" width="48" height="10" rx="5" fill="#928374"/>
</svg>